<mxfile host="Electron" modified="2023-04-11T12:18:01.822Z" agent="Mozilla/5.0 (Windows NT 10.0; Win64; x64) AppleWebKit/537.36 (KHTML, like Gecko) draw.io/21.1.2 Chrome/106.0.5249.199 Electron/21.4.3 Safari/537.36" etag="ieWuNXs9FqfoqnclGCsj" version="21.1.2" type="device">
  <diagram name="Page-1" id="N42RYhXa8N9c7S4zNt6Y">
    <mxGraphModel dx="2037" dy="825" grid="1" gridSize="10" guides="1" tooltips="1" connect="1" arrows="1" fold="1" page="1" pageScale="1" pageWidth="827" pageHeight="1169" math="0" shadow="0">
      <root>
        <mxCell id="0" />
        <mxCell id="1" parent="0" />
        <mxCell id="Vjs1HDhkc-KeTP9c5CW1-18" value="Car" style="swimlane;childLayout=stackLayout;horizontal=1;startSize=50;horizontalStack=0;rounded=1;fontSize=14;fontStyle=0;strokeWidth=2;resizeParent=0;resizeLast=1;shadow=0;dashed=0;align=center;arcSize=4;whiteSpace=wrap;html=1;" vertex="1" parent="1">
          <mxGeometry x="340" y="330" width="160" height="280" as="geometry" />
        </mxCell>
        <mxCell id="Vjs1HDhkc-KeTP9c5CW1-19" value="+id int auto_increment pk&lt;br&gt;+top_speed decimal&lt;br&gt;+breaking_force int&lt;br&gt;+acceleration int&lt;br&gt;+nitro int&lt;br&gt;+hp int&lt;br&gt;+brand varchar(100)&lt;br&gt;+model varchar(100)&lt;br&gt;+color varchar(50)&lt;br&gt;+spoiler_id int fk&lt;br&gt;+break_id int fk&lt;br&gt;+wheel_id int fk&lt;br&gt;+engine_id int fk&lt;br&gt;+nitro_id int fk&lt;br&gt;+price decimal" style="align=left;strokeColor=none;fillColor=none;spacingLeft=4;fontSize=12;verticalAlign=top;resizable=0;rotatable=0;part=1;html=1;" vertex="1" parent="Vjs1HDhkc-KeTP9c5CW1-18">
          <mxGeometry y="50" width="160" height="230" as="geometry" />
        </mxCell>
        <mxCell id="Vjs1HDhkc-KeTP9c5CW1-20" value="Spoiler" style="swimlane;childLayout=stackLayout;horizontal=1;startSize=50;horizontalStack=0;rounded=1;fontSize=14;fontStyle=0;strokeWidth=2;resizeParent=0;resizeLast=1;shadow=0;dashed=0;align=center;arcSize=4;whiteSpace=wrap;html=1;" vertex="1" parent="1">
          <mxGeometry x="570" y="410" width="160" height="140" as="geometry" />
        </mxCell>
        <mxCell id="Vjs1HDhkc-KeTP9c5CW1-21" value="+id int auto_increment pk&lt;br&gt;+type varchar(20)&lt;br&gt;+name varchar(100)&lt;br&gt;+level int&lt;br&gt;+price decimal" style="align=left;strokeColor=none;fillColor=none;spacingLeft=4;fontSize=12;verticalAlign=top;resizable=0;rotatable=0;part=1;html=1;" vertex="1" parent="Vjs1HDhkc-KeTP9c5CW1-20">
          <mxGeometry y="50" width="160" height="90" as="geometry" />
        </mxCell>
        <mxCell id="Vjs1HDhkc-KeTP9c5CW1-22" value="Wheel" style="swimlane;childLayout=stackLayout;horizontal=1;startSize=50;horizontalStack=0;rounded=1;fontSize=14;fontStyle=0;strokeWidth=2;resizeParent=0;resizeLast=1;shadow=0;dashed=0;align=center;arcSize=4;whiteSpace=wrap;html=1;" vertex="1" parent="1">
          <mxGeometry x="360" y="630" width="160" height="150" as="geometry" />
        </mxCell>
        <mxCell id="Vjs1HDhkc-KeTP9c5CW1-23" value="+id int auto_increment pk&lt;br&gt;+name varchar(100)&lt;br&gt;+level int&lt;br&gt;+price decimal&lt;br&gt;+type varchar(50)&lt;br&gt;+rim_color varchar(50)" style="align=left;strokeColor=none;fillColor=none;spacingLeft=4;fontSize=12;verticalAlign=top;resizable=0;rotatable=0;part=1;html=1;" vertex="1" parent="Vjs1HDhkc-KeTP9c5CW1-22">
          <mxGeometry y="50" width="160" height="100" as="geometry" />
        </mxCell>
        <mxCell id="Vjs1HDhkc-KeTP9c5CW1-24" value="Break" style="swimlane;childLayout=stackLayout;horizontal=1;startSize=50;horizontalStack=0;rounded=1;fontSize=14;fontStyle=0;strokeWidth=2;resizeParent=0;resizeLast=1;shadow=0;dashed=0;align=center;arcSize=4;whiteSpace=wrap;html=1;" vertex="1" parent="1">
          <mxGeometry x="160" y="630" width="160" height="120" as="geometry" />
        </mxCell>
        <mxCell id="Vjs1HDhkc-KeTP9c5CW1-25" value="+id int auto_increment pk&lt;br&gt;+name varchar(100)&lt;br&gt;+level int&lt;br&gt;+price decimal" style="align=left;strokeColor=none;fillColor=none;spacingLeft=4;fontSize=12;verticalAlign=top;resizable=0;rotatable=0;part=1;html=1;" vertex="1" parent="Vjs1HDhkc-KeTP9c5CW1-24">
          <mxGeometry y="50" width="160" height="70" as="geometry" />
        </mxCell>
        <mxCell id="Vjs1HDhkc-KeTP9c5CW1-29" value="Engine" style="swimlane;childLayout=stackLayout;horizontal=1;startSize=50;horizontalStack=0;rounded=1;fontSize=14;fontStyle=0;strokeWidth=2;resizeParent=0;resizeLast=1;shadow=0;dashed=0;align=center;arcSize=4;whiteSpace=wrap;html=1;" vertex="1" parent="1">
          <mxGeometry x="550" y="630" width="160" height="150" as="geometry" />
        </mxCell>
        <mxCell id="Vjs1HDhkc-KeTP9c5CW1-30" value="+id int auto_increment pk&lt;br&gt;+name varchar(100)&lt;br&gt;+type varchar(50)&lt;br&gt;+cylinder varchar(50)&lt;br&gt;+level int&amp;nbsp;&lt;br&gt;+price decimal" style="align=left;strokeColor=none;fillColor=none;spacingLeft=4;fontSize=12;verticalAlign=top;resizable=0;rotatable=0;part=1;html=1;" vertex="1" parent="Vjs1HDhkc-KeTP9c5CW1-29">
          <mxGeometry y="50" width="160" height="100" as="geometry" />
        </mxCell>
        <mxCell id="Vjs1HDhkc-KeTP9c5CW1-31" value="Nitro" style="swimlane;childLayout=stackLayout;horizontal=1;startSize=50;horizontalStack=0;rounded=1;fontSize=14;fontStyle=0;strokeWidth=2;resizeParent=0;resizeLast=1;shadow=0;dashed=0;align=center;arcSize=4;whiteSpace=wrap;html=1;" vertex="1" parent="1">
          <mxGeometry x="90" y="440" width="160" height="120" as="geometry" />
        </mxCell>
        <mxCell id="Vjs1HDhkc-KeTP9c5CW1-32" value="+id int auto_increment pk&lt;br&gt;+name varchar(100)&lt;br&gt;+level int&lt;br&gt;+price decimal" style="align=left;strokeColor=none;fillColor=none;spacingLeft=4;fontSize=12;verticalAlign=top;resizable=0;rotatable=0;part=1;html=1;" vertex="1" parent="Vjs1HDhkc-KeTP9c5CW1-31">
          <mxGeometry y="50" width="160" height="70" as="geometry" />
        </mxCell>
      </root>
    </mxGraphModel>
  </diagram>
</mxfile>
